<svg width="1393" height="908" xmlns="http://www.w3.org/2000/svg" xmlns:xlink="http://www.w3.org/1999/xlink" overflow="hidden"><defs><clipPath id="clip0"><rect x="1375" y="444" width="1393" height="908"/></clipPath><clipPath id="clip1"><rect x="1696" y="822" width="148" height="150"/></clipPath><clipPath id="clip2"><rect x="1696" y="822" width="148" height="150"/></clipPath><clipPath id="clip3"><rect x="1696" y="822" width="148" height="150"/></clipPath><clipPath id="clip4"><rect x="2436" y="822" width="149" height="150"/></clipPath><clipPath id="clip5"><rect x="2436" y="822" width="149" height="150"/></clipPath><clipPath id="clip6"><rect x="2436" y="822" width="149" height="150"/></clipPath><clipPath id="clip7"><rect x="2049" y="822" width="148" height="150"/></clipPath><clipPath id="clip8"><rect x="2049" y="822" width="148" height="150"/></clipPath><clipPath id="clip9"><rect x="2049" y="822" width="148" height="150"/></clipPath><clipPath id="clip10"><path d="M1634.37 884.485 1865.13 1120.39 1629.23 1351.15 1398.47 1115.25Z" fill-rule="evenodd" clip-rule="evenodd"/></clipPath><clipPath id="clip11"><path d="M1634.37 884.485 1865.13 1120.39 1629.23 1351.15 1398.47 1115.25Z" fill-rule="evenodd" clip-rule="evenodd"/></clipPath><clipPath id="clip12"><path d="M1634.37 884.485 1865.13 1120.39 1629.23 1351.15 1398.47 1115.25Z" fill-rule="evenodd" clip-rule="evenodd"/></clipPath><clipPath id="clip13"><path d="M2427.44 445.26 2658.2 681.162 2422.3 911.922 2191.54 676.02Z" fill-rule="evenodd" clip-rule="evenodd"/></clipPath><clipPath id="clip14"><path d="M2427.44 445.26 2658.2 681.162 2422.3 911.922 2191.54 676.02Z" fill-rule="evenodd" clip-rule="evenodd"/></clipPath><clipPath id="clip15"><path d="M2427.44 445.26 2658.2 681.162 2422.3 911.922 2191.54 676.02Z" fill-rule="evenodd" clip-rule="evenodd"/></clipPath></defs><g clip-path="url(#clip0)" transform="translate(-1375 -444)"><path d="M1415 676 1651.07 897 1421.65 1118 2512.25 1115.67 2745 894.674 2508.92 678.326 1415 676Z" stroke="#155692" stroke-width="27.5" stroke-linecap="butt" stroke-linejoin="miter" stroke-miterlimit="8" stroke-opacity="1" fill="none" fill-rule="evenodd"/><path d="M1817.33 679 1985 897.338 1815 1118" stroke="#155692" stroke-width="27.5" stroke-linecap="butt" stroke-linejoin="miter" stroke-miterlimit="8" stroke-opacity="1" fill="none" fill-rule="evenodd"/><path d="M2202.33 679 2370 897.338 2200 1118" stroke="#155692" stroke-width="27.5" stroke-linecap="butt" stroke-linejoin="miter" stroke-miterlimit="8" stroke-opacity="1" fill="none" fill-rule="evenodd"/><g clip-path="url(#clip1)"><g clip-path="url(#clip2)"><g clip-path="url(#clip3)"><path d="M132.737 24.3583 53.8041 98.9749 15.8791 60.1249 2.775 72.6124 53.1874 124.412 66.4457 112.079 145.225 37.3083Z" fill="#00B2B6" fill-rule="nonzero" fill-opacity="1" transform="matrix(1 0 0 1 1696 823)"/></g></g></g><g clip-path="url(#clip4)"><g clip-path="url(#clip5)"><g clip-path="url(#clip6)"><path d="M2569.74 847.358 2490.8 921.975 2452.88 883.125 2439.77 895.613 2490.19 947.413 2503.45 935.079 2582.22 860.308Z" fill="#00B2B6" fill-rule="nonzero" fill-opacity="1"/></g></g></g><g clip-path="url(#clip7)"><g clip-path="url(#clip8)"><g clip-path="url(#clip9)"><path d="M132.737 24.3583 53.8041 98.9749 15.8791 60.1249 2.775 72.6124 53.1874 124.412 66.4457 112.079 145.225 37.3083Z" fill="#00B2B6" fill-rule="nonzero" fill-opacity="1" transform="matrix(1 0 0 1 2049 823)"/></g></g></g><g clip-path="url(#clip10)"><g clip-path="url(#clip11)"><g clip-path="url(#clip12)"><path d="M1630.39 1245.18C1613.38 1244.99 1599.68 1230.98 1599.87 1213.97L1600.32 1172.65C1600.47 1159.52 1608.86 1147.95 1621.3 1143.95L1620.9 1179.93C1621.08 1185.52 1625.41 1189.94 1631.24 1190.01 1636.59 1190.06 1641.5 1185.74 1641.81 1180.16L1642.2 1144.18C1654.31 1148.69 1662.44 1160.45 1662.3 1173.58L1661.84 1214.89C1661.41 1231.66 1647.65 1245.12 1630.39 1245.18ZM1601.54 1062.3 1601.99 1020.98C1602.18 1003.97 1616.19 990.269 1633.2 990.456 1650.21 990.644 1663.92 1004.65 1663.73 1021.66L1663.27 1062.98C1663.13 1076.11 1654.74 1087.68 1642.53 1091.92L1642.86 1062.76C1642.67 1057.17 1638.35 1052.74 1632.51 1052.68 1627.17 1052.62 1622.26 1056.94 1621.95 1062.53L1621.63 1091.69C1609.53 1087.19 1601.39 1075.43 1601.54 1062.3ZM1682.26 1214.63 1682.72 1173.31C1683.23 1148.77 1665.97 1127.19 1641.96 1122.3L1642.05 1113.55C1665.93 1108.96 1683.42 1088 1683.93 1063.45L1684.38 1022.13C1683.47 994.656 1660.87 972.53 1633.4 971.984 1605.7 971.679 1582.85 993.062 1581.33 1021L1580.88 1062.32C1580.36 1086.86 1597.63 1108.45 1621.64 1113.33L1621.54 1122.08C1597.67 1126.68 1580.18 1147.63 1579.66 1172.18L1579.21 1213.5C1579.88 1241.22 1602.48 1263.34 1630.19 1263.65 1657.9 1263.95 1680.99 1242.33 1682.26 1214.63Z" fill="#000000" fill-rule="nonzero" fill-opacity="1"/></g></g></g><g clip-path="url(#clip13)"><g clip-path="url(#clip14)"><g clip-path="url(#clip15)"><path d="M2423.47 805.951C2406.46 805.764 2392.76 791.757 2392.94 774.743L2393.4 733.424C2393.54 720.299 2401.93 708.724 2414.38 704.729L2413.98 740.701C2414.16 746.293 2418.49 750.717 2424.32 750.781 2429.67 750.84 2434.58 746.518 2434.88 740.931L2435.28 704.959C2447.38 709.468 2455.52 721.225 2455.37 734.35L2454.92 775.669C2454.49 792.437 2440.73 805.898 2423.47 805.951ZM2394.61 623.078 2395.07 581.759C2395.26 564.745 2409.26 551.044 2426.28 551.231 2443.29 551.419 2456.99 565.426 2456.8 582.439L2456.35 623.758C2456.2 636.883 2447.81 648.459 2435.61 652.7L2435.93 623.533C2435.75 617.941 2431.42 613.517 2425.59 613.453 2420.24 613.394 2415.33 617.716 2415.03 623.303L2414.71 652.469C2402.6 647.961 2394.47 636.203 2394.61 623.078ZM2475.34 775.408 2475.8 734.089C2476.31 709.543 2459.04 687.962 2435.03 683.079L2435.13 674.329C2459 669.73 2476.49 648.775 2477.01 624.229L2477.46 582.91C2476.55 555.432 2453.94 533.305 2426.48 532.759 2398.77 532.454 2375.93 553.837 2374.41 581.775L2373.95 623.094C2373.44 647.639 2390.7 669.221 2414.71 674.104L2414.62 682.854C2390.74 687.452 2373.25 708.408 2372.74 732.954L2372.29 774.273C2372.95 801.991 2395.56 824.118 2423.27 824.423 2450.97 824.729 2474.06 803.106 2475.34 775.408Z" fill="#000000" fill-rule="nonzero" fill-opacity="1"/></g></g></g></g></svg>